<svg id="_50d_n" data-name="50d/n" xmlns="http://www.w3.org/2000/svg" viewBox="0 0 24 24"><defs><style>.cls-1{fill:#ccc;}.cls-2{fill:none;stroke:#ccc;stroke-miterlimit:10;stroke-width:1.5px;}</style></defs><path class="cls-1" d="M14.08,7a2.92,2.92,0,0,0,.26-1.19A2.69,2.69,0,0,0,11.72,3h0A3.23,3.23,0,0,0,9.09,1.62,3.3,3.3,0,0,0,6,4,2.71,2.71,0,0,0,4.83,3.7,3,3,0,0,0,1.88,6.81,3.14,3.14,0,0,0,3.24,9.43,3,3,0,0,0,6.14,12a2.77,2.77,0,0,0,1.64-.53A2.77,2.77,0,0,0,9.42,12a2.87,2.87,0,0,0,2.17-1,2.14,2.14,0,0,0,1.11.32A2.37,2.37,0,0,0,15,8.89,2.44,2.44,0,0,0,14.08,7Z"/><line class="cls-2" x1="16.5" y1="14.5" x2="2" y2="14.5"/><line class="cls-2" x1="22" y1="10.5" x2="12" y2="10.5"/><line class="cls-2" x1="18" y1="6.5" x2="8" y2="6.5"/><line class="cls-2" x1="21" y1="18.5" x2="3.5" y2="18.5"/></svg>