<svg id="_10d" data-name="10d" xmlns="http://www.w3.org/2000/svg" viewBox="0 0 24 24"><defs><style>.cls-1{fill:#ffd31a;}.cls-2{fill:#6fafef;}.cls-3{fill:#ccc;}</style></defs><circle class="cls-1" cx="7.41" cy="7.47" r="4.53"/><polygon class="cls-2" points="6.52 23 4.86 23 9.51 12 11.17 12 6.52 23"/><polygon class="cls-2" points="10.54 23 8.88 23 13.53 12 15.19 12 10.54 23"/><polygon class="cls-2" points="14.21 23 12.55 23 17.2 12 18.86 12 14.21 23"/><path class="cls-3" d="M19.84,11.1a3.21,3.21,0,0,0-2.92-4.63h0a4,4,0,0,0-7,1.11A3.64,3.64,0,0,0,6.46,14a3.63,3.63,0,0,0,5.61,2.39,3.57,3.57,0,0,0,2,.62,3.62,3.62,0,0,0,2.67-1.18,2.82,2.82,0,0,0,3.08-4.72Z"/></svg>