<svg id="_10n" data-name="10n" xmlns="http://www.w3.org/2000/svg" viewBox="0 0 24 24"><defs><style>.cls-1{fill:#f4e8ab;}.cls-2{fill:#6fafef;}.cls-3{fill:#ccc;}</style></defs><path class="cls-1" d="M9,9.31a3.44,3.44,0,0,1-3.5-3.37A3.39,3.39,0,0,1,7.77,2.79,4.8,4.8,0,0,0,6.4,2.56,4.3,4.3,0,0,0,2,6.78,4.3,4.3,0,0,0,6.4,11,4.41,4.41,0,0,0,10,9.16,3.52,3.52,0,0,1,9,9.31Z"/><polygon class="cls-2" points="6.52 23 4.86 23 9.51 12 11.17 12 6.52 23"/><polygon class="cls-2" points="10.54 23 8.88 23 13.53 12 15.19 12 10.54 23"/><polygon class="cls-2" points="14.21 23 12.55 23 17.2 12 18.86 12 14.21 23"/><path class="cls-3" d="M19.84,11.1a3.21,3.21,0,0,0-2.92-4.63h0a4,4,0,0,0-7,1.11A3.64,3.64,0,0,0,6.46,14a3.63,3.63,0,0,0,5.61,2.39,3.57,3.57,0,0,0,2,.62,3.62,3.62,0,0,0,2.67-1.18,2.82,2.82,0,0,0,3.08-4.72Z"/></svg>