<svg id="_11d_n" data-name="11d/n" xmlns="http://www.w3.org/2000/svg" viewBox="0 0 24 24"><defs><style>.cls-1{fill:#ffb000;}.cls-2{fill:#ccc;}</style></defs><polygon class="cls-1" points="13.57 10 9.53 18.17 11.75 18.17 8.73 24 15.18 17 13.67 17 17 10 13.57 10"/><path class="cls-2" d="M20,8a3.51,3.51,0,0,0,.37-1.55,3.63,3.63,0,0,0-3.63-3.62h0A4.5,4.5,0,0,0,8.85,4.06a4,4,0,0,0-1.62-.34A4.06,4.06,0,0,0,5,11.21a4.06,4.06,0,0,0,6.26,2.68,4.11,4.11,0,0,0,2.27.69,4,4,0,0,0,3-1.32,3.22,3.22,0,0,0,1.54.41A3.16,3.16,0,0,0,20,8Z"/></svg>